<svg width="105" height="39" viewBox="0 0 105 39" fill="none" xmlns="http://www.w3.org/2000/svg">
<path fill-rule="evenodd" clip-rule="evenodd" d="M36.4566 21.4212V21.5883H27.8235V21.4212C27.8404 21.3566 27.8728 21.2489 27.9162 21.1042C28.209 20.1286 29.0066 17.4714 29.0066 15.0043V8.17021C29.0066 5.37818 27.0777 4.25296 24.9744 4.25296C23.5535 4.25296 22.1522 5.23883 21.8192 6.0537V7.33626V15.0043C21.8192 17.5121 22.6087 20.2163 22.8816 21.151C22.917 21.2723 22.9437 21.3638 22.9589 21.4212V21.5883H14.3248V21.4212C14.3426 21.3198 14.4 21.1122 14.4804 20.8218C14.7961 19.6807 15.4651 17.2628 15.4651 15.0043V8.17021C15.4651 5.37818 13.4924 4.25296 11.4329 4.25296C9.95501 4.25296 8.62831 5.08994 8.10201 6.0485V15.0043C8.10201 17.2633 8.77031 19.6818 9.08551 20.8226C9.16571 21.1125 9.22301 21.3199 9.24071 21.4212V21.5883H0.651413V21.4212C0.669113 21.3199 0.726513 21.1124 0.806713 20.8222C1.12221 19.6813 1.79081 17.2631 1.79081 15.0043V7.17004C1.79081 4.99937 1.17361 3.33911 0.845413 2.45621C0.745113 2.18647 0.671813 1.98928 0.651413 1.87228V1.7054L8.10201 0.586028V4.12835C9.72321 1.96135 11.9147 0.335938 15.0264 0.335938C17.919 0.335938 20.4175 1.66964 21.3812 4.50328C23.0024 2.08618 25.2814 0.335938 28.5686 0.335938C32.2931 0.335938 35.3179 2.58594 35.3179 7.33626V15.0043C35.3179 17.2633 35.9862 19.6818 36.3014 20.8226C36.3815 21.1125 36.4389 21.3199 36.4566 21.4212ZM61.12 21.4214V21.5885H55.0292C54.6339 20.7968 54.1074 19.4215 53.8458 17.9215C52.2674 20.2548 50.0761 21.9634 46.7459 21.9634C42.8885 21.9634 39.5147 19.7134 39.5147 14.9622V7.17018C39.5147 4.998 38.8966 3.33694 38.5682 2.45451C38.4682 2.18571 38.395 1.98916 38.3744 1.87242V1.70555L45.9133 0.586177V14.1291C45.9133 17.0044 47.6658 18.0878 49.6816 18.0878C51.4166 18.0878 53.1775 16.9125 53.6256 16.3791L53.6165 16.2842C53.5998 16.1098 53.5914 16.0217 53.5871 15.9335C53.5827 15.8434 53.5827 15.7531 53.5828 15.5707V15.5458V7.17018C53.5828 4.998 52.9646 3.33694 52.6362 2.45451C52.5362 2.18571 52.463 1.98916 52.4424 1.87242V1.70555L59.9369 0.586177V15.0045C59.9369 17.4714 60.7344 20.1285 61.0272 21.1042C61.0706 21.2487 61.1031 21.3568 61.12 21.4214ZM90.75 9.2982V8.90208C90.75 5.52685 91.685 2.12042 94.796 2.12042C97.689 2.12042 98.552 5.21174 98.638 8.37826L90.75 9.2982ZM104.731 15.6705L104.555 15.5873C102.058 17.3377 99.998 18.0046 97.718 18.0046C93.292 18.0046 91.277 14.9213 90.838 10.6291H104.993C104.993 5.41979 102.146 0.335938 94.957 0.335938C88.428 0.335938 83.826 4.3778 83.826 11.1289C83.826 18.4628 89.391 21.9626 94.87 21.9626C100.173 21.9626 103.548 18.6298 104.731 15.6705ZM63.992 20.2138L64.581 14.3799H64.756C65.234 14.8424 65.707 15.3321 66.182 15.823C68.272 17.9856 70.385 20.1722 73.063 20.1722C74.773 20.1722 76.394 19.3391 76.394 17.5887C76.394 15.6297 74.291 14.9213 70.697 13.713C66.096 12.1299 63.422 10.0884 63.422 6.7127C63.422 2.67063 67.147 0.336748 72.582 0.336748C74.554 0.336748 77.534 0.711678 80.514 1.87894L79.926 7.46191H79.751C79.565 7.26039 79.381 7.05839 79.197 6.85713L79.195 6.85506C76.949 4.39457 74.804 2.04538 71.968 2.04538C70.346 2.04538 68.77 2.79546 68.77 4.37861C68.77 6.27976 71 7.00357 74.297 8.07355L74.597 8.17102C79.769 9.879 81.522 12.0876 81.522 15.0892C81.522 19.9219 77.183 21.9634 72.669 21.9634C70.61 21.9634 67.586 21.5475 63.992 20.2138ZM2.81551 30.0211C2.81551 31.2702 3.24171 32.3842 4.14711 32.3842C5.07021 32.3842 5.51391 31.2702 5.51391 30.0211C5.51391 28.7723 5.07021 27.6748 4.14711 27.6748C3.24171 27.6748 2.81551 28.7723 2.81551 30.0211ZM5.92191 36.3168H2.95751C2.44291 36.3168 2.03441 36.2663 1.69731 36.1651V36.2832C1.67951 37.3803 2.42491 38.2918 4.50191 38.2918C5.85131 38.2918 7.25351 37.8868 7.25351 37.1271C7.25351 36.6376 6.88081 36.3168 5.92191 36.3168ZM8.67341 27.8101L8.62031 27.8437C8.07011 27.5567 7.39551 27.4217 6.61441 27.6579C7.44881 28.1477 8.05231 28.924 8.05231 30.0044C8.05231 32.0468 5.92191 33.0257 4.14711 33.0257C3.66751 33.0257 3.15291 32.9581 2.67381 32.8061C2.26531 32.9243 1.92801 33.1438 1.92801 33.4643C1.92801 33.9032 2.46061 33.9541 3.11751 33.9541H6.01081C7.83921 33.9541 8.88651 34.8318 8.88651 36.3508C8.88651 38.5449 6.31281 39.0007 4.27131 39.0007C3.02861 39.0007 0.277313 38.7812 0.277313 37.0936C0.277313 36.604 0.50801 36.1313 0.91621 35.7598C0.47221 35.3886 0.330513 34.899 0.330513 34.4602C0.330513 33.4476 1.00491 32.84 2.08751 32.5699C1.07601 32.0973 0.29491 31.2533 0.29491 30.0044C0.29491 27.9787 2.38951 27.0166 4.14711 27.0166C4.83931 27.0166 5.58481 27.1519 6.24171 27.4555C6.70321 26.4428 7.59081 25.717 9.04651 25.9027L8.67341 27.8101ZM12.7402 28.7547V27.1176L9.70471 27.5742V27.6418C9.71301 27.6894 9.74271 27.7693 9.78351 27.8786C9.91641 28.2355 10.166 28.9058 10.166 29.7846V32.9576C10.166 33.8727 9.89531 34.852 9.76761 35.3142C9.73511 35.4318 9.71191 35.5159 9.70471 35.557V35.6246H13.2195V35.557C13.2127 35.5311 13.1998 35.4881 13.1824 35.4303C13.0642 35.0368 12.7402 33.9587 12.7402 32.9576V29.2107C13.9651 28.4004 15.2077 28.974 15.9886 29.7336H16.0597L16.4681 27.1007C14.6039 26.5268 13.3971 27.4722 12.7402 28.7547ZM19.8059 31.3541C19.8059 33.1769 20.2674 35.1012 21.5632 35.1012C22.8411 35.1012 23.3385 33.1941 23.3385 31.3541C23.3385 29.5312 22.8411 27.6915 21.5632 27.6915C20.2852 27.6915 19.8059 29.5481 19.8059 31.3541ZM16.9299 31.3541C16.9299 28.434 19.0779 27.0162 21.5632 27.0162C24.0485 27.0162 26.2318 28.4511 26.2318 31.3541C26.2318 34.2744 24.0485 35.7934 21.5632 35.7934C19.0779 35.7934 16.9299 34.2744 16.9299 31.3541ZM35.8015 27.1171L32.766 27.5739V27.6416C32.7743 27.6889 32.804 27.7685 32.8445 27.8774C32.9774 28.234 33.2273 28.9046 33.2273 29.7841V33.1766C33.2273 33.3328 33.2425 33.4888 33.259 33.6584L33.2631 33.6998C32.7482 34.0039 32.1802 34.2063 31.6475 34.2063C30.8309 34.2063 30.1209 33.7676 30.1209 32.6028V27.1171L27.0676 27.5739V27.6416C27.0759 27.6889 27.1056 27.7685 27.1462 27.8774C27.2792 28.234 27.5292 28.9046 27.5292 29.7841V32.9404C27.5292 34.8647 28.896 35.776 30.4582 35.776C31.8075 35.776 32.6951 35.084 33.334 34.1387C33.4404 34.7466 33.6535 35.3035 33.8131 35.6241H36.2806V35.5564C36.2737 35.5301 36.2604 35.4859 36.2426 35.4264C36.1237 35.03 35.8015 33.9553 35.8015 32.9571V27.1171ZM40.3106 34.1054C40.7188 34.3754 41.1448 34.5442 41.6064 34.5442C43.0444 34.5442 43.5948 33.0083 43.5948 31.3203C43.5948 29.7844 43.0797 28.4171 41.7306 28.4171C41.2337 28.4171 40.7544 28.6364 40.3106 29.0081V34.1054ZM40.3106 28.299C40.9142 27.455 41.8726 27.0162 42.9201 27.0162C44.7839 27.0162 46.3992 28.4511 46.3992 31.2698C46.3992 34.3585 44.4821 35.7763 42.707 35.7763C41.9259 35.7763 41.0028 35.5063 40.3106 34.73V36.3335C40.3106 37.2496 40.582 38.2304 40.7096 38.6919C40.7419 38.8085 40.765 38.892 40.7722 38.9328V39.0002H37.2573V38.9328C37.2645 38.8916 37.2879 38.8071 37.3205 38.689C37.4484 38.2263 37.7189 37.2476 37.7189 36.3335V29.8349C37.7189 28.9667 37.4749 28.2727 37.3409 27.8912C37.2977 27.7685 37.2659 27.6781 37.2573 27.6247L37.2396 27.5742L40.3106 27.1174V28.299Z" fill="#19191A"/>
</svg>
