<svg width="24" height="24" viewBox="0 0 24 24" fill="none" xmlns="http://www.w3.org/2000/svg">
<g clip-path="url(#clip0_52_1083)">
<path d="M24.0004 12.2505C24.0004 5.62313 18.6277 0.250488 12.0004 0.250488C5.37301 0.250488 0.000366211 5.62313 0.000366211 12.2505C0.000366211 17.878 3.87493 22.6003 9.10165 23.8972V15.9177H6.62725V12.2505H9.10165V10.6703C9.10165 6.58601 10.9501 4.69289 14.96 4.69289C15.7204 4.69289 17.0322 4.84217 17.5688 4.99097V8.31497C17.2856 8.28521 16.7936 8.27033 16.1826 8.27033C14.2151 8.27033 13.4548 9.01577 13.4548 10.9535V12.2505H17.3744L16.701 15.9177H13.4548V24.1627C19.3957 23.4451 24.0004 18.3858 24.0004 12.2505Z" fill="#3366FF"/>
</g>
<defs>
<clipPath id="clip0_52_1083">
<rect width="24" height="24" fill="white" transform="translate(0.000366211)"/>
</clipPath>
</defs>
</svg>
