<svg width="25" height="25" viewBox="0 0 25 25" fill="none" xmlns="http://www.w3.org/2000/svg">
<path d="M23.0568 0.250488C23.9675 0.250488 24.7711 1.05406 24.7711 2.01835V22.5362C24.7711 23.5005 23.9675 24.2505 23.0568 24.2505H2.43183C1.52112 24.2505 0.771118 23.5005 0.771118 22.5362V2.01835C0.771118 1.05406 1.52112 0.250488 2.43183 0.250488H23.0568ZM8.00326 20.8219V9.4112H4.46755V20.8219H8.00326ZM6.2354 7.80406C7.3604 7.80406 8.27112 6.89335 8.27112 5.76835C8.27112 4.64335 7.3604 3.67906 6.2354 3.67906C5.05683 3.67906 4.14612 4.64335 4.14612 5.76835C4.14612 6.89335 5.05683 7.80406 6.2354 7.80406ZM21.3425 20.8219V14.5541C21.3425 11.5005 20.6461 9.08977 17.0568 9.08977C15.3425 9.08977 14.164 10.0541 13.6818 10.9648H13.6283V9.4112H10.2533V20.8219H13.789V15.1969C13.789 13.6969 14.0568 12.2505 15.9318 12.2505C17.7533 12.2505 17.7533 13.9648 17.7533 15.2505V20.8219H21.3425Z" fill="#3366FF"/>
</svg>
