<svg width="25" height="25" viewBox="0 0 25 25" fill="none" xmlns="http://www.w3.org/2000/svg">
<path d="M12.1469 0.250488C18.7275 0.250488 24.1469 5.66984 24.1469 12.2505C24.1469 18.8795 18.7275 24.2505 12.1469 24.2505C5.51782 24.2505 0.146851 18.8795 0.146851 12.2505C0.146851 5.66984 5.51782 0.250488 12.1469 0.250488ZM17.663 8.42791C17.7114 8.28275 17.7114 8.13759 17.663 7.94404C17.663 7.84726 17.5662 7.7021 17.5178 7.65371C17.3727 7.50855 17.1307 7.50855 17.0339 7.50855C16.5985 7.50855 15.8727 7.75049 12.5339 9.15371C11.3727 9.63758 9.05008 10.6053 5.56621 12.1537C4.98556 12.3956 4.69524 12.5892 4.64685 12.8311C4.59846 13.2182 5.2275 13.3634 5.9533 13.6053C6.58233 13.7989 7.40492 14.0408 7.8404 14.0408C8.2275 14.0408 8.66298 13.8956 9.14685 13.5569C12.3888 11.3311 14.0823 10.2182 14.1791 10.2182C14.2759 10.2182 14.3727 10.1698 14.421 10.2182C14.5178 10.315 14.5178 10.4118 14.4694 10.4602C14.421 10.7021 11.3727 13.5086 11.1791 13.7021C10.5017 14.3795 9.7275 14.815 10.9372 15.5892C11.9533 16.2666 12.5339 16.7021 13.5985 17.3795C14.2759 17.815 14.8081 18.3473 15.4856 18.2989C15.8243 18.2505 16.163 17.9602 16.3081 17.0408C16.7436 14.9602 17.5178 10.315 17.663 8.42791Z" fill="#3366FF"/>
</svg>
